<mxfile host="app.diagrams.net" agent="Mozilla/5.0 (X11; Linux x86_64) AppleWebKit/537.36 (KHTML, like Gecko) Chrome/116.0.0.0 Safari/537.36" version="24.7.12">
  <diagram name="Page-1" id="0v-W38Z8ykqCBfGKfMDX">
    <mxGraphModel dx="1058" dy="623" grid="1" gridSize="10" guides="1" tooltips="1" connect="1" arrows="1" fold="1" page="1" pageScale="1" pageWidth="850" pageHeight="1100" math="0" shadow="0">
      <root>
        <mxCell id="0" />
        <mxCell id="1" parent="0" />
        <mxCell id="2yPYqYNkm-5YXehRgjWg-1" value="&lt;p style=&quot;text-align: center; margin: 4px 0px 0px;&quot;&gt;Anggota&lt;/p&gt;&lt;hr size=&quot;1&quot; style=&quot;border-style:solid;&quot;&gt;&lt;p style=&quot;margin:0px;margin-left:4px;&quot;&gt;nama: char&lt;/p&gt;&lt;hr size=&quot;1&quot; style=&quot;border-style:solid;&quot;&gt;&lt;p style=&quot;margin:0px;margin-left:4px;&quot;&gt;tampilkan()&lt;/p&gt;" style="verticalAlign=top;align=left;overflow=fill;html=1;whiteSpace=wrap;" vertex="1" parent="1">
          <mxGeometry x="390" y="320" width="130" height="80" as="geometry" />
        </mxCell>
        <mxCell id="2yPYqYNkm-5YXehRgjWg-8" value="&lt;p style=&quot;text-align: center; margin: 4px 0px 0px;&quot;&gt;irma&lt;/p&gt;&lt;hr size=&quot;1&quot; style=&quot;border-style:solid;&quot;&gt;&lt;p style=&quot;margin:0px;margin-left:4px;&quot;&gt;nama: char&lt;/p&gt;&lt;hr size=&quot;1&quot; style=&quot;border-style:solid;&quot;&gt;&lt;p style=&quot;margin:0px;margin-left:4px;&quot;&gt;tampilkan()&lt;/p&gt;" style="verticalAlign=top;align=left;overflow=fill;html=1;whiteSpace=wrap;" vertex="1" parent="1">
          <mxGeometry x="390" y="80" width="130" height="80" as="geometry" />
        </mxCell>
        <mxCell id="2yPYqYNkm-5YXehRgjWg-10" value="&lt;p style=&quot;text-align: center; margin: 4px 0px 0px;&quot;&gt;Profil&lt;/p&gt;&lt;hr size=&quot;1&quot; style=&quot;border-style:solid;&quot;&gt;&lt;p style=&quot;margin:0px;margin-left:4px;&quot;&gt;nama: char&lt;/p&gt;&lt;hr size=&quot;1&quot; style=&quot;border-style:solid;&quot;&gt;&lt;p style=&quot;margin:0px;margin-left:4px;&quot;&gt;tampilkan()&lt;/p&gt;" style="verticalAlign=top;align=left;overflow=fill;html=1;whiteSpace=wrap;" vertex="1" parent="1">
          <mxGeometry x="390" y="200" width="130" height="80" as="geometry" />
        </mxCell>
        <mxCell id="2yPYqYNkm-5YXehRgjWg-12" value="&lt;p style=&quot;text-align: center; margin: 4px 0px 0px;&quot;&gt;Kegiatan_irma&lt;/p&gt;&lt;hr size=&quot;1&quot; style=&quot;border-style:solid;&quot;&gt;&lt;p style=&quot;margin:0px;margin-left:4px;&quot;&gt;nama: char&lt;/p&gt;&lt;hr size=&quot;1&quot; style=&quot;border-style:solid;&quot;&gt;&lt;p style=&quot;margin:0px;margin-left:4px;&quot;&gt;tampilkan()&lt;/p&gt;" style="verticalAlign=top;align=left;overflow=fill;html=1;whiteSpace=wrap;" vertex="1" parent="1">
          <mxGeometry x="390" y="440" width="130" height="80" as="geometry" />
        </mxCell>
        <mxCell id="2yPYqYNkm-5YXehRgjWg-13" value="&lt;p style=&quot;text-align: center; margin: 4px 0px 0px;&quot;&gt;Dokumentasi_irma&lt;/p&gt;&lt;hr size=&quot;1&quot; style=&quot;border-style:solid;&quot;&gt;&lt;p style=&quot;margin:0px;margin-left:4px;&quot;&gt;img: char&lt;/p&gt;&lt;hr size=&quot;1&quot; style=&quot;border-style:solid;&quot;&gt;&lt;p style=&quot;margin:0px;margin-left:4px;&quot;&gt;tampilkan()&lt;/p&gt;" style="verticalAlign=top;align=left;overflow=fill;html=1;whiteSpace=wrap;" vertex="1" parent="1">
          <mxGeometry x="390" y="550" width="130" height="80" as="geometry" />
        </mxCell>
        <mxCell id="2yPYqYNkm-5YXehRgjWg-15" value="&lt;p style=&quot;text-align: center; margin: 4px 0px 0px;&quot;&gt;Beranda&lt;/p&gt;&lt;hr size=&quot;1&quot; style=&quot;border-style:solid;&quot;&gt;&lt;p style=&quot;margin:0px;margin-left:4px;&quot;&gt;nama: char&lt;/p&gt;&lt;hr size=&quot;1&quot; style=&quot;border-style:solid;&quot;&gt;&lt;p style=&quot;margin:0px;margin-left:4px;&quot;&gt;tampilkan()&lt;/p&gt;" style="verticalAlign=top;align=left;overflow=fill;html=1;whiteSpace=wrap;" vertex="1" parent="1">
          <mxGeometry x="120" y="320" width="130" height="80" as="geometry" />
        </mxCell>
        <mxCell id="2yPYqYNkm-5YXehRgjWg-19" value="" style="edgeStyle=entityRelationEdgeStyle;fontSize=12;html=1;endArrow=ERoneToMany;rounded=0;exitX=1.008;exitY=0.15;exitDx=0;exitDy=0;entryX=0;entryY=0.5;entryDx=0;entryDy=0;exitPerimeter=0;" edge="1" parent="1" source="2yPYqYNkm-5YXehRgjWg-15" target="2yPYqYNkm-5YXehRgjWg-8">
          <mxGeometry width="100" height="100" relative="1" as="geometry">
            <mxPoint x="380" y="380" as="sourcePoint" />
            <mxPoint x="480" y="280" as="targetPoint" />
          </mxGeometry>
        </mxCell>
        <mxCell id="2yPYqYNkm-5YXehRgjWg-20" value="" style="edgeStyle=entityRelationEdgeStyle;fontSize=12;html=1;endArrow=ERoneToMany;rounded=0;exitX=0.992;exitY=0.163;exitDx=0;exitDy=0;entryX=0.008;entryY=0.163;entryDx=0;entryDy=0;entryPerimeter=0;exitPerimeter=0;" edge="1" parent="1" source="2yPYqYNkm-5YXehRgjWg-15" target="2yPYqYNkm-5YXehRgjWg-10">
          <mxGeometry width="100" height="100" relative="1" as="geometry">
            <mxPoint x="380" y="380" as="sourcePoint" />
            <mxPoint x="380" y="212" as="targetPoint" />
          </mxGeometry>
        </mxCell>
        <mxCell id="2yPYqYNkm-5YXehRgjWg-21" value="" style="edgeStyle=entityRelationEdgeStyle;fontSize=12;html=1;endArrow=ERoneToMany;rounded=0;exitX=1;exitY=0.15;exitDx=0;exitDy=0;exitPerimeter=0;" edge="1" parent="1" source="2yPYqYNkm-5YXehRgjWg-15">
          <mxGeometry width="100" height="100" relative="1" as="geometry">
            <mxPoint x="250" y="360" as="sourcePoint" />
            <mxPoint x="390" y="330" as="targetPoint" />
          </mxGeometry>
        </mxCell>
        <mxCell id="2yPYqYNkm-5YXehRgjWg-22" value="" style="edgeStyle=entityRelationEdgeStyle;fontSize=12;html=1;endArrow=ERoneToMany;rounded=0;entryX=-0.008;entryY=0.113;entryDx=0;entryDy=0;entryPerimeter=0;exitX=0.992;exitY=0.163;exitDx=0;exitDy=0;exitPerimeter=0;" edge="1" parent="1" source="2yPYqYNkm-5YXehRgjWg-15">
          <mxGeometry width="100" height="100" relative="1" as="geometry">
            <mxPoint x="240" y="325" as="sourcePoint" />
            <mxPoint x="388.96000000000004" y="439.99999999999994" as="targetPoint" />
          </mxGeometry>
        </mxCell>
        <mxCell id="2yPYqYNkm-5YXehRgjWg-24" value="" style="edgeStyle=entityRelationEdgeStyle;fontSize=12;html=1;endArrow=ERoneToMany;rounded=0;entryX=0.008;entryY=0.113;entryDx=0;entryDy=0;entryPerimeter=0;" edge="1" parent="1" target="2yPYqYNkm-5YXehRgjWg-13">
          <mxGeometry width="100" height="100" relative="1" as="geometry">
            <mxPoint x="250" y="330" as="sourcePoint" />
            <mxPoint x="480" y="280" as="targetPoint" />
          </mxGeometry>
        </mxCell>
      </root>
    </mxGraphModel>
  </diagram>
</mxfile>
